<svg width="256" height="256" xmlns="http://www.w3.org/2000/svg" xmlns:xlink="http://www.w3.org/1999/xlink" preserveAspectRatio="xMidYMid"><defs><linearGradient x1="0%" y1="73.25%" x2="37.75%" y2="36.583%" id="c"><stop stop-color="#0060FF" offset="0%"/><stop stop-color="#1F66D6" offset="100%"/></linearGradient><linearGradient x1="34.722%" y1="0%" x2="92.014%" y2="90.75%" id="d"><stop stop-color="#1F6AE2" offset="0%"/><stop stop-color="#2E7BED" offset="100%"/></linearGradient><linearGradient x1="76.5%" y1="48.265%" x2="0%" y2="54.819%" id="g"><stop stop-color="#0D57D9" offset="0%"/><stop stop-color="#0D57D9" offset="100%"/></linearGradient><path id="e" d="M234.667 256V0H0l192 256z"/><path id="h" d="M186.453 0 0 52.693v38.4h256V73.6z"/><circle id="a" cx="128" cy="128" r="128"/></defs><mask id="b" fill="#fff"><use xlink:href="#a"/></mask><g mask="url(#b)"><path fill="url(#c)" d="M378.169 325.99v-256h-256v255.787z" transform="translate(-122.169 -69.99)"/><path fill="#115EDE" d="m-112.514 120.985 181.02-181.02.904.905-181.019 181.02zM-97.128 136.372l181.02-181.02.905.906-181.02 181.019zM-81.74 151.759 99.278-29.261l.905.905-181.02 181.02zM-66.355 167.145l181.02-181.02.904.906L-65.45 168.05zM-50.968 182.532l181.02-181.02.905.906-181.02 181.019zM-35.58 197.919l181.019-181.02.905.905-181.02 181.02zM-20.195 213.305l181.02-181.02.905.906L-19.29 214.21zM-4.807 228.692l181.019-181.02.905.905-181.02 181.02zM10.579 244.077l181.02-181.019.904.905-181.019 181.02zM25.965 259.465l181.02-181.02.904.906L26.87 260.37z"/><path fill="#115EDE" d="m-122.169 84.782.905-.905 181.02 181.019-.906.905zM-106.783 69.395l.905-.905 181.02 181.019-.905.905zM-91.395 54.008l.906-.905L90.53 234.123l-.905.904zM-76.008 38.622l.905-.906 181.019 181.02-.905.905zM-60.622 23.234l.905-.905 181.02 181.02-.905.905zM-45.236 7.849l.906-.905 181.019 181.019-.905.905zM-29.849-7.539l.905-.905 181.02 181.02-.906.905zM-14.462-22.926l.905-.905 181.02 181.02-.906.905zM.925-38.311l.905-.906 181.019 181.02-.905.905zM16.311-53.699l.905-.905 181.02 181.02-.905.905zM31.697-69.085l.905-.905 181.02 181.019-.905.905z"/><path fill="url(#d)" d="M378.169 325.99v-256H143.502l192 256z" transform="translate(-122.169 -69.99)"/><g transform="translate(21.333)"><mask id="f" fill="#fff"><use xlink:href="#e"/></mask><g mask="url(#f)" fill="#3582F7"><path d="m-52.972 40.373 181.019-181.019.905.905-181.02 181.02zM100.894 194.24l181.02-181.019.905.905-181.02 181.02zM-37.586 55.76l181.02-181.019.904.905L-36.68 56.666zM116.281 209.627l181.02-181.02.904.906-181.019 181.02zM-22.199 71.147l181.02-181.019.904.905-181.019 181.02zM131.667 225.014l181.019-181.02.905.906-181.02 181.019zM-6.813 86.533l181.02-181.019.905.905L-5.908 87.44zM147.054 240.4l181.02-181.019.904.905-181.02 181.02zM8.574 101.92l181.02-181.019.904.906L9.48 102.826zM162.44 255.786 343.46 74.767l.905.905-181.02 181.02zM23.961 117.307l181.02-181.02.904.906-181.019 181.02zM177.827 271.174l181.02-181.02.904.905-181.019 181.02zM39.347 132.694l181.02-181.02.904.905L40.252 133.6zM193.214 286.56l181.02-181.019.905.905-181.02 181.02zM54.734 148.08l181.02-181.019.905.905-181.02 181.02zM208.6 301.946l181.02-181.019.905.905-181.02 181.02zM70.12 163.466 251.14-17.553l.905.905-181.02 181.02zM223.987 317.334l181.02-181.02.904.905-181.019 181.02zM85.507 178.854l181.02-181.02.904.905L86.412 179.76z"/><path d="m-62.627 4.17.905-.905 332.17 332.17-.904.905zM-47.24-11.217l.906-.905 332.17 332.17-.905.906zM-31.854-26.603l.905-.906 332.171 332.17-.905.906zM-16.467-41.99l.905-.905 332.17 332.17-.904.905zM-1.08-57.377l.904-.905 332.17 332.17-.904.905zM14.306-72.763l.905-.905 332.17 332.17-.904.905zM29.692-88.15l.905-.905 332.17 332.17-.904.906zM45.08-103.536l.905-.905 332.17 332.17-.905.905zM60.466-118.923l.905-.905 332.17 332.17-.904.905zM75.853-134.31l.905-.906 332.17 332.17-.905.906zM91.24-149.696l.905-.905 332.17 332.17-.905.905z"/></g></g><path stroke="#0D57D9" fill="url(#g)" d="M308.622 234.897 122.169 287.59v38.4h256v-17.493z" transform="translate(-122.169 -69.99)"/><g transform="translate(0 164.907)"><mask id="i" fill="#fff"><use xlink:href="#h"/></mask><g mask="url(#i)" fill="#1362DD"><path d="M-92.726 73.628 398.19-71.788l.727 2.455L-91.999 76.082zM-80.365 115.356 410.551-30.06l.727 2.454L-79.638 117.81zM-68.005 157.084 422.911 11.668l.727 2.454-490.916 145.416zM-55.645 198.812 435.271 53.396l.727 2.455-490.915 145.415z"/><path d="m-75.144.78 2.455-.726L72.727 490.969l-2.455.727zM-33.415-11.58l2.454-.726 145.416 490.915-2.455.727zM8.312-23.94l2.454-.726 145.416 490.915-2.455.727zM50.04-36.301l2.454-.727L197.91 453.887l-2.455.727zM91.767-48.661l2.455-.727 145.416 490.915-2.455.727zM133.494-61.021l2.455-.727 145.416 490.916-2.455.727zM175.222-73.381l2.455-.727 145.416 490.916-2.455.727zM216.95-85.742l2.455-.727L364.82 404.447l-2.455.727z"/></g></g></g><g><path fill="#6AABD4" d="m98.133 45.227-11.52 65.707 42.24 22.613z"/><path fill="#E4F6FE" d="M169.386 110.934 98.133 45.227l30.72 88.32z"/><path fill="#A8CCE9" d="m169.386 110.934-40.533 22.613 80.64 47.36z"/><path fill="#D8E9F8" d="m209.493 180.907-80.64-47.36 39.253 64.853z"/><path fill="#84C1F2" d="m168.106 198.4-39.253-64.853-81.92 47.36z"/><path fill="#AECEE9" d="m46.933 180.907 81.92-47.36-42.24-22.613z"/></g></svg>