<svg width="50" height="41" viewBox="0 0 50 41" fill="none" xmlns="http://www.w3.org/2000/svg">
<path d="M50 4.81016C48.1277 5.6396 46.1417 6.18405 44.1082 6.42539C46.2264 5.15586 47.8527 3.14551 48.6186 0.750195C46.605 1.94509 44.402 2.78697 42.1047 3.23945C40.2334 1.2459 37.5676 0 34.617 0C28.9518 0 24.3586 4.59297 24.3586 10.2578C24.3586 11.0619 24.4494 11.8447 24.6242 12.5957C16.0988 12.1678 8.54023 8.08398 3.48066 1.87773C2.59785 3.39277 2.09199 5.15508 2.09199 7.03477C2.09199 10.5938 3.90313 13.7334 6.65547 15.573C5.02646 15.522 3.4333 15.0821 2.00898 14.2898C2.0084 14.3328 2.0084 14.3758 2.0084 14.4189C2.0084 19.3891 5.54434 23.5352 10.2369 24.4775C8.72634 24.8884 7.14185 24.9485 5.60449 24.6533C6.90977 28.7287 10.6982 31.6943 15.1869 31.7773C11.6762 34.5285 7.25293 36.1686 2.44707 36.1686C1.61895 36.1686 0.802539 36.1199 0 36.0252C4.53965 38.9357 9.93164 40.634 15.7246 40.634C34.5932 40.634 44.9109 25.0029 44.9109 11.4475C44.9109 11.0025 44.9012 10.5602 44.8813 10.1203C46.8895 8.66852 48.6229 6.87034 50 4.81016" fill="#55ACEE"/>
</svg>
